<svg width="25" height="25" viewBox="0 0 25 25" fill="none" xmlns="http://www.w3.org/2000/svg">
<path d="M22.2884 10.3948H21.4829V10.3533H12.4829V14.3533H18.1344C17.3099 16.6818 15.0944 18.3533 12.4829 18.3533C9.16941 18.3533 6.48291 15.6668 6.48291 12.3533C6.48291 9.03983 9.16941 6.35333 12.4829 6.35333C14.0124 6.35333 15.4039 6.93033 16.4634 7.87283L19.2919 5.04433C17.5059 3.37983 15.1169 2.35333 12.4829 2.35333C6.96041 2.35333 2.48291 6.83083 2.48291 12.3533C2.48291 17.8758 6.96041 22.3533 12.4829 22.3533C18.0054 22.3533 22.4829 17.8758 22.4829 12.3533C22.4829 11.6828 22.4139 11.0283 22.2884 10.3948Z" fill="#FFC107"/>
<path d="M3.63574 7.69883L6.92124 10.1083C7.81024 7.90733 9.96324 6.35333 12.4827 6.35333C14.0122 6.35333 15.4037 6.93033 16.4632 7.87283L19.2917 5.04433C17.5057 3.37983 15.1167 2.35333 12.4827 2.35333C8.64174 2.35333 5.31074 4.52183 3.63574 7.69883Z" fill="#FF3D00"/>
<path d="M12.4831 22.3533C15.0661 22.3533 17.4131 21.3648 19.1876 19.7573L16.0926 17.1383C15.0548 17.9275 13.7868 18.3543 12.4831 18.3533C9.88207 18.3533 7.67357 16.6948 6.84157 14.3803L3.58057 16.8928C5.23557 20.1313 8.59657 22.3533 12.4831 22.3533Z" fill="#4CAF50"/>
<path d="M22.2884 10.3948H21.4829V10.3533H12.4829V14.3533H18.1344C17.74 15.4615 17.0296 16.4299 16.0909 17.1388L16.0924 17.1378L19.1874 19.7568C18.9684 19.9558 22.4829 17.3533 22.4829 12.3533C22.4829 11.6828 22.4139 11.0283 22.2884 10.3948Z" fill="#1976D2"/>
</svg>
