<svg width="48" height="49" viewBox="0 0 48 49" fill="none" xmlns="http://www.w3.org/2000/svg">
<path d="M32.2501 33.3921C32.1516 33.3922 32.054 33.3729 31.963 33.3351C31.872 33.2974 31.7894 33.242 31.7199 33.1722L15.2199 16.6722C15.0852 16.5304 15.0112 16.3416 15.0137 16.146C15.0162 15.9505 15.095 15.7636 15.2333 15.6253C15.3716 15.487 15.5585 15.4082 15.7541 15.4057C15.9496 15.4032 16.1385 15.4772 16.2803 15.6119L32.7803 32.1119C32.8851 32.2168 32.9564 32.3504 32.9854 32.4958C33.0143 32.6413 32.9994 32.792 32.9427 32.929C32.8859 33.066 32.7899 33.1831 32.6666 33.2656C32.5433 33.348 32.3984 33.392 32.2501 33.3921ZM23.6251 27.1975L21.1974 24.7699C21.1835 24.7561 21.1656 24.747 21.1463 24.7439C21.127 24.7408 21.1071 24.7438 21.0896 24.7525C21.0721 24.7613 21.0577 24.7753 21.0486 24.7926C21.0394 24.8099 21.0359 24.8297 21.0385 24.8491C21.1365 25.4789 21.4323 26.0613 21.883 26.512C22.3337 26.9627 22.916 27.2584 23.5459 27.3564C23.5653 27.3591 23.585 27.3556 23.6024 27.3464C23.6197 27.3373 23.6337 27.3229 23.6424 27.3054C23.6512 27.2878 23.6542 27.268 23.6511 27.2487C23.648 27.2293 23.6389 27.2114 23.6251 27.1975ZM24.3751 21.5866L26.8065 24.0171C26.8204 24.0311 26.8383 24.0403 26.8577 24.0435C26.8772 24.0467 26.8971 24.0438 26.9148 24.035C26.9324 24.0262 26.9469 24.0121 26.956 23.9947C26.9652 23.9772 26.9686 23.9574 26.9659 23.9378C26.8681 23.3072 26.5722 22.724 26.1209 22.2727C25.6696 21.8214 25.0864 21.5254 24.4557 21.4277C24.4362 21.4247 24.4162 21.4279 24.3986 21.4369C24.381 21.446 24.3668 21.4603 24.3578 21.4779C24.3489 21.4955 24.3457 21.5155 24.3488 21.5351C24.3519 21.5546 24.3611 21.5726 24.3751 21.5866Z" fill="#313131"/>
<path d="M35.0156 25.2058C35.1708 24.9623 35.2529 24.6793 35.252 24.3905C35.2512 24.1017 35.1675 23.8191 35.0109 23.5765C33.7706 21.6583 32.1614 20.029 30.3577 18.8641C28.3594 17.5741 26.1562 16.8921 23.985 16.8921C22.8404 16.8937 21.7035 17.0803 20.6184 17.4447C20.5881 17.4548 20.5608 17.4726 20.5392 17.4962C20.5176 17.5198 20.5024 17.5486 20.4951 17.5797C20.4878 17.6109 20.4885 17.6434 20.4973 17.6742C20.5061 17.7049 20.5226 17.7329 20.5453 17.7555L22.7597 19.9699C22.7827 19.9929 22.8113 20.0096 22.8427 20.0182C22.8741 20.0269 22.9072 20.0272 22.9387 20.0191C23.6893 19.8362 24.4744 19.8496 25.2183 20.058C25.9622 20.2665 26.6399 20.6629 27.1862 21.2092C27.7325 21.7555 28.1289 22.4332 28.3373 23.1771C28.5458 23.921 28.5592 24.706 28.3762 25.4566C28.3683 25.4881 28.3686 25.5211 28.3773 25.5524C28.3859 25.5837 28.4025 25.6123 28.4255 25.6352L31.6106 28.8227C31.6438 28.8559 31.6881 28.8755 31.735 28.8776C31.7819 28.8796 31.8278 28.8641 31.8637 28.834C33.0898 27.7889 34.1522 26.566 35.0156 25.2058ZM24 28.8921C23.3188 28.8921 22.6465 28.7375 22.0337 28.4399C21.4209 28.1423 20.8837 27.7094 20.4626 27.174C20.0415 26.6385 19.7474 26.0144 19.6026 25.3488C19.4578 24.6832 19.466 23.9933 19.6266 23.3313C19.6345 23.2998 19.6342 23.2668 19.6255 23.2355C19.6169 23.2042 19.6003 23.1757 19.5773 23.1527L16.4442 20.0182C16.411 19.9849 16.3665 19.9654 16.3195 19.9634C16.2726 19.9614 16.2265 19.9771 16.1906 20.0074C15.0473 20.9829 13.9875 22.1697 13.0186 23.5568C12.849 23.8002 12.7556 24.0886 12.7502 24.3852C12.7449 24.6818 12.8279 24.9733 12.9886 25.2227C14.2266 27.1601 15.8194 28.7918 17.5955 29.9407C19.5966 31.2358 21.7462 31.8921 23.985 31.8921C25.1412 31.889 26.2899 31.7063 27.39 31.3507C27.4206 31.3409 27.4482 31.3234 27.4702 31.2998C27.4921 31.2763 27.5076 31.2475 27.5152 31.2163C27.5227 31.185 27.5222 31.1523 27.5134 31.1213C27.5047 31.0904 27.4882 31.0622 27.4655 31.0394L25.2403 28.8147C25.2174 28.7918 25.1888 28.7752 25.1575 28.7665C25.1262 28.7579 25.0932 28.7576 25.0617 28.7655C24.7141 28.8498 24.3577 28.8922 24 28.8921Z" fill="#313131"/>
</svg>
