<svg width="19" height="17" viewBox="0 0 19 17" fill="none" xmlns="http://www.w3.org/2000/svg">
<path d="M18.2453 15.5668L14.9083 12.4383C16.2036 10.9118 16.8309 8.97425 16.6612 7.02403C16.4915 5.07381 15.5376 3.25917 13.9958 1.95324C12.454 0.647302 10.4414 -0.0506594 8.37181 0.00286579C6.30224 0.056391 4.33303 0.857335 2.86908 2.24101C1.40512 3.62468 0.55771 5.4859 0.501079 7.44198C0.444448 9.39805 1.18291 11.3003 2.56461 12.7576C3.94631 14.2148 5.86624 15.1164 7.92961 15.2768C9.99298 15.4372 12.043 14.8443 13.658 13.62L16.9681 16.7485C17.0517 16.8282 17.1512 16.8915 17.2608 16.9346C17.3704 16.9778 17.4879 17 17.6067 17C17.7254 17 17.843 16.9778 17.9526 16.9346C18.0622 16.8915 18.1617 16.8282 18.2453 16.7485C18.4074 16.59 18.498 16.3782 18.498 16.1577C18.498 15.9372 18.4074 15.7254 18.2453 15.5668ZM8.61203 13.62C7.36675 13.62 6.14943 13.271 5.11402 12.6171C4.07861 11.9632 3.2716 11.0338 2.79505 9.94637C2.3185 8.85897 2.19381 7.66243 2.43676 6.50805C2.6797 5.35368 3.27936 4.29331 4.15991 3.46105C5.04045 2.62879 6.16234 2.06202 7.3837 1.8324C8.60505 1.60278 9.87102 1.72062 11.0215 2.17104C12.172 2.62146 13.1553 3.38421 13.8472 4.36284C14.539 5.34148 14.9083 6.49204 14.9083 7.66903C14.9083 9.24733 14.2449 10.761 13.0642 11.877C11.8834 12.993 10.2819 13.62 8.61203 13.62Z" fill="#424866"/>
</svg>
